<?xml version="1.0" encoding="utf-8"?>
<!-- Generator: Adobe Illustrator 25.4.1, SVG Export Plug-In . SVG Version: 6.00 Build 0)  -->
<svg version="1.1" id="Layer_1" xmlns="http://www.w3.org/2000/svg" xmlns:xlink="http://www.w3.org/1999/xlink" x="0px" y="0px"
	 viewBox="0 0 348 104" style="enable-background:new 0 0 348 104;" xml:space="preserve">
<style type="text/css">
	.st0{fill:#1C191C;}
	.st1{fill:#EE7F2C;}
	.st2{fill:#3C94D1;}
	.st3{fill:#272626;}
	.st4{fill:none;stroke:#272626;stroke-width:0.75;stroke-miterlimit:10;}
	.st5{fill:none;}
	.st6{fill:#375FAC;}
	.st7{fill:#D59F29;}
</style>
<rect x="98.4" y="8.8" class="st0" width="0.5" height="86.9"/>
<g>
	<g>
		<path class="st1" d="M40.9,21.2c0,2.7,0.7,4.6,2.1,6c1.4,1.4,3.5,2.1,6,2.1c2.4,0,4.5-0.7,5.8-2.1c1.4-1.4,2.1-3.3,2.1-5.8
			c0-2.3-0.7-4.5-2.1-5.8s-3.5-2.2-5.8-2.2c-2.6,0-4.5,0.7-5.8,2.1C41.6,16.8,40.9,18.8,40.9,21.2"/>
		<path class="st2" d="M44.5,47c-2.1,0.4-3.6,1.1-4.5,1.9c-1,0.9-1.4,2-1.4,3.2c0,1.7,0.9,3,2.7,3.9c1.7,0.9,4.1,1.3,7.6,1.3
			c3.3,0,5.8-0.4,7.8-1.6c1.9-1.1,2.9-2.3,2.9-4.1c0-1.4-0.4-2.6-1.6-3.1c-1.1-0.7-3.1-1.4-6-1.7C48.6,46.5,46.6,46.6,44.5,47"/>
		<path class="st2" d="M65.3,16.9c5.6,4.8,9.3,11.8,9.3,19.7c0,5.7-1.9,11.1-5.1,15.4c-0.4,0.7-1.1,1.4-1.7,2
			c-0.2,0.2-0.7,0.4-1.1,0.4c-0.4,0-0.6-0.2-0.4-0.9c0.2-1,0.4-1.8,0.4-2.9c0-3.5-1.2-6-3.5-7.6c-2.3-1.6-7-2.6-14.1-2.9
			c-3.7-0.2-6-0.4-6.9-1c-1-0.4-1.6-1.2-1.6-2.1c0-0.6,0.2-1.3,0.7-1.8c0.4-0.4,1.2-1,2.1-1.3c0.9,0.2,1.8,0.3,2.7,0.4
			c0.9,0.1,1.8,0.2,2.7,0.2c4.6,0,8.4-1.1,11-3.6c2.7-2.3,4.5-5.8,4.5-10c0-1.6-0.2-2.8-0.7-4.1C63.2,15.9,64.4,16,65.3,16.9"/>
		<path class="st2" d="M33.1,16.3c0.2-0.1,1.6-0.7,1.3,0.7c-0.6,1.6-0.9,2.9-0.9,4.5c0,2.2,0.6,4.3,1.6,6.1c0.9,1.8,2.2,3.3,4,4.6
			c-1.9,1-3.3,2-4.1,3.2c-1,1.2-1.3,2.6-1.3,3.9c0,1.3,0.3,2.6,1.2,3.5c0.9,1,2,1.8,3.7,2.6c-3.7,1.3-7.6,3.8-6.5,8.5
			c0,0.1,0,0.1,0,0.2c0.2,1-1.2,1-2.1-0.1c-4.3-4.8-6.7-10.5-6.7-17C23.2,28.3,27.1,21.1,33.1,16.3"/>
	</g>
	<g>
		<path class="st3" d="M23.9,90.5c-2.2,0-4.5-0.3-6.2-1.2c-1.8-0.7-3.3-1.8-4.7-3.2c-1.3-1.3-2.2-2.9-2.9-4.7C9.2,79.8,9,78,9,76
			s0.3-3.9,1.1-5.7c0.7-1.8,1.7-3.3,3-4.7c1.3-1.3,2.8-2.2,4.6-3.1c1.8-0.7,3.7-1.1,5.8-1.1c2.6,0,4.7,0.3,6.2,1
			c1.6,0.6,3,1.6,4,2.7l0.1,0.1l-2.9,3.2l-0.1-0.1c-1.1-1.1-2.2-1.8-3.5-2.1c-1.2-0.3-2.6-0.6-3.9-0.6c-1.6,0-2.9,0.2-4.1,0.9
			c-1.2,0.6-2.2,1.3-3.2,2.2c-0.9,1-1.6,2.1-2,3.3c-0.4,1.3-0.7,2.8-0.7,4.1c0,1.6,0.2,2.9,0.9,4.1c0.4,1.3,1.3,2.3,2.1,3.3
			c1,1,2,1.7,3.3,2.2c1.2,0.4,2.7,0.9,4,0.9s2.6-0.1,3.7-0.3c1.1-0.2,2-0.6,2.9-1V78h-6.1v-3.8h10.1v13.7L34.2,88
			c-0.7,0.4-1.4,0.9-2.2,1.1c-0.9,0.3-1.8,0.6-2.7,0.9c-1,0.2-1.9,0.3-2.8,0.4C25.5,90.5,24.7,90.5,23.9,90.5"/>
		<path class="st3" d="M47.6,90.2c-1.4,0-2.8-0.2-3.9-0.7c-1.2-0.4-2.1-1.2-3-2s-1.4-1.9-1.9-3.1c-0.4-1.2-0.7-2.6-0.7-3.8
			c0-1.4,0.2-2.7,0.7-3.8c0.4-1.2,1.2-2.2,2-3.1c0.9-0.9,1.9-1.6,3.1-2c1.2-0.4,2.6-0.7,3.8-0.7c1.7,0,3,0.2,4.1,0.9
			c1.2,0.6,2.1,1.3,2.9,2.2c0.7,1,1.3,2,1.6,3.1c0.3,1.2,0.4,2.3,0.4,3.6v1.4H42c0,0.7,0.2,1.3,0.4,1.9c0.3,0.6,0.7,1.2,1.3,1.6
			s1.2,0.9,1.9,1.1s1.4,0.3,2.2,0.3c1.1,0,1.9-0.2,2.8-0.7c0.7-0.4,1.4-1.1,2.1-1.9l0.1-0.1l3,2.2l-0.1,0.1
			C53.8,89,51.1,90.2,47.6,90.2 M42,78.8h10.5c0-0.7-0.1-1.3-0.3-1.8c-0.2-0.6-0.4-1.2-1-1.6c-0.4-0.4-1-0.9-1.6-1.1
			S48.3,74,47.5,74s-1.6,0.1-2.2,0.4c-0.7,0.3-1.2,0.7-1.7,1.2c-0.5,0.4-0.9,1.1-1.1,1.7C42.2,77.7,42.1,78.2,42,78.8z"/>
		<path class="st3" d="M63.5,89.8h-3.9V71.2h3.9v2.3c0.2-0.2,0.3-0.6,0.6-0.9c0.3-0.3,0.9-0.7,1.3-1.1c0.4-0.2,1.1-0.4,1.6-0.7
			c1.1-0.3,2.3-0.3,3.3,0h0.1l-0.1,4.3L70.1,75c-0.2-0.1-0.6-0.1-0.9-0.2c-0.2,0-0.6-0.1-0.9-0.1c-1.7,0-2.9,0.4-3.7,1.3
			c-0.9,1-1.3,2.3-1.3,4.3L63.5,89.8L63.5,89.8z"/>
		<path class="st3" d="M78.8,90.2c-0.9,0-1.7-0.1-2.6-0.3c-0.9-0.2-1.6-0.6-2.1-1.1c-0.6-0.4-1.1-1.1-1.4-1.8
			c-0.3-0.7-0.4-1.6-0.4-2.6c0-1.2,0.2-2.2,0.9-3.1c0.6-0.9,1.3-1.6,2.2-2c1-0.4,2-0.9,3.2-1.1c1.3-0.2,2.7-0.3,3.9-0.3h2.3v-0.6
			c0-0.4-0.1-0.9-0.2-1.3c-0.1-0.4-0.4-0.9-0.7-1.2c-0.3-0.3-0.7-0.6-1.3-0.9c-0.4-0.2-1.1-0.3-1.8-0.3c-0.6,0-1.2,0.1-1.7,0.2
			c-0.4,0.1-1,0.2-1.3,0.4c-0.3,0.2-0.7,0.3-1.1,0.6c-0.2,0.1-0.3,0.2-0.6,0.4l-0.6,0.3l-2.3-2.3l0.1-0.1c1-1,2.1-1.6,3.5-2
			c1.3-0.4,2.7-0.7,3.9-0.7c1.2,0,2.6,0.1,3.5,0.4c1,0.3,1.8,0.9,2.6,1.4c0.6,0.6,1.1,1.2,1.4,2c0.3,0.7,0.4,1.6,0.4,2.3V86
			c0,0.7,0,1.2,0,1.8c0,0.6,0.1,1.1,0.1,1.6v0.2h-3.5v-0.2c-0.1-0.7-0.1-1.4-0.1-2.2c-0.7,1-1.6,1.7-2.6,2.1
			C81.4,90,80.2,90.2,78.8,90.2 M83.2,81.1c-0.9,0-1.7,0-2.6,0.1c-0.9,0.1-1.6,0.2-2.2,0.4c-0.6,0.2-1.2,0.6-1.7,1.1
			c-0.3,0.4-0.6,1-0.6,1.7c0,1,0.3,1.7,1,2.1s1.6,0.7,2.8,0.7c1,0,1.7-0.1,2.3-0.4s1.2-0.7,1.6-1.2c0.3-0.4,0.7-1.1,0.9-1.7
			c0.1-0.6,0.2-1.2,0.2-1.8v-1L83.2,81.1L83.2,81.1z"/>
		<path class="st3" d="M85.9,63.5h-0.4v-0.7h0.3c0.1,0,0.2,0,0.3,0c0.1,0,0.1,0.1,0.1,0.1V63c0,0.1,0,0.2-0.1,0.2
			C86.3,63.5,86.1,63.5,85.9,63.5 M86.7,64.4c-0.1-0.2-0.2-0.3-0.3-0.4c0,0-0.1-0.1-0.2-0.1c0.2,0,0.3-0.1,0.4-0.2
			c0.1-0.1,0.1-0.2,0.1-0.4c0-0.1,0-0.2-0.1-0.3c-0.1-0.1-0.1-0.1-0.2-0.2c-0.1,0-0.3-0.1-0.6-0.1h-0.7v2.2h0.4v-1h0.2
			c0.1,0,0.2,0,0.2,0.1c0.1,0.1,0.2,0.2,0.3,0.4l0.2,0.3h0.4L86.7,64.4z"/>
		<path class="st3" d="M87.5,64.5c-0.1,0.2-0.3,0.4-0.6,0.6c-0.2,0.1-0.6,0.2-0.9,0.2s-0.6-0.1-0.9-0.2c-0.2-0.1-0.4-0.3-0.6-0.6
			c-0.2-0.2-0.3-0.6-0.3-0.9s0.1-0.6,0.2-0.9c0.1-0.2,0.3-0.4,0.6-0.6c0.3-0.2,0.6-0.2,0.9-0.2s0.6,0.1,0.9,0.2
			c0.2,0.1,0.4,0.3,0.6,0.6s0.2,0.6,0.2,0.9C87.8,64,87.7,64.3,87.5,64.5 M87.9,62.6c-0.2-0.3-0.4-0.6-0.7-0.7
			c-0.3-0.1-0.7-0.2-1.1-0.2c-0.3,0-0.7,0.1-1.1,0.2c-0.3,0.2-0.6,0.4-0.9,0.7c-0.2,0.3-0.2,0.7-0.2,1.1c0,0.4,0.1,0.7,0.2,1.1
			c0.2,0.3,0.4,0.6,0.7,0.7s0.7,0.2,1.1,0.2c0.4,0,0.7-0.1,1.1-0.2c0.3-0.2,0.6-0.4,0.7-0.7c0.2-0.3,0.2-0.7,0.2-1.1
			C88.1,63.4,88,63,87.9,62.6z"/>
	</g>
</g>
<line class="st4" x1="109.7" y1="79.3" x2="338.8" y2="79.3"/>
<rect x="177.5" y="34.1" class="st5" width="74.5" height="17.8"/>
<g>
	<path class="st6" d="M120.9,28.5c-1.4,0-2.7-0.2-3.9-0.7c-1.2-0.5-2.2-1.1-3.1-2c-0.9-0.9-1.6-1.8-2.1-3c-0.5-1.1-0.7-2.4-0.7-3.8
		c0-1.4,0.2-2.6,0.7-3.8c0.5-1.1,1.2-2.1,2.1-3c0.9-0.9,1.9-1.5,3.1-2c1.2-0.5,2.5-0.7,4-0.7c1.5,0,2.9,0.3,4.2,0.8
		c1.2,0.5,2.3,1.2,3.1,2.2l-2.1,2.1c-0.7-0.7-1.5-1.2-2.3-1.6c-0.8-0.3-1.7-0.5-2.7-0.5c-1,0-1.9,0.2-2.7,0.5s-1.5,0.8-2.1,1.3
		c-0.6,0.6-1.1,1.3-1.4,2c-0.3,0.8-0.5,1.6-0.5,2.6c0,0.9,0.2,1.8,0.5,2.6c0.3,0.8,0.8,1.5,1.4,2c0.6,0.6,1.3,1,2.1,1.3
		s1.7,0.5,2.7,0.5c0.9,0,1.8-0.1,2.6-0.4c0.8-0.3,1.6-0.8,2.4-1.4l1.9,2.5c-0.9,0.8-2,1.3-3.3,1.7C123.4,28.3,122.2,28.5,120.9,28.5
		z M124.8,25.8V19h3.2v7.2L124.8,25.8z"/>
	<path class="st6" d="M138.7,28.5c-1.5,0-2.9-0.3-4.1-0.9c-1.2-0.6-2-1.5-2.7-2.5c-0.6-1.1-1-2.3-1-3.7s0.3-2.6,0.9-3.7
		c0.6-1.1,1.5-1.9,2.6-2.5c1.1-0.6,2.3-0.9,3.7-0.9c1.4,0,2.6,0.3,3.6,0.9s1.9,1.4,2.5,2.5c0.6,1.1,0.9,2.4,0.9,3.8
		c0,0.1,0,0.3,0,0.5c0,0.2,0,0.3,0,0.5h-11.6v-2.2h9.9l-1.3,0.7c0-0.8-0.1-1.5-0.5-2.1c-0.3-0.6-0.8-1.1-1.4-1.4
		c-0.6-0.3-1.3-0.5-2.1-0.5c-0.8,0-1.5,0.2-2.1,0.5c-0.6,0.3-1.1,0.8-1.4,1.4s-0.5,1.3-0.5,2.2v0.5c0,0.8,0.2,1.6,0.6,2.2
		c0.4,0.6,0.9,1.1,1.6,1.5c0.7,0.4,1.5,0.5,2.4,0.5c0.8,0,1.5-0.1,2.1-0.4c0.6-0.3,1.2-0.6,1.7-1.1l1.8,2c-0.6,0.7-1.4,1.3-2.4,1.7
		S139.9,28.5,138.7,28.5z"/>
	<path class="st6" d="M148.4,28.3V14.4h3.1v3.8l-0.4-1.1c0.4-0.9,1.1-1.7,2-2.1c0.9-0.5,2-0.7,3.3-0.7v3.1c-0.1,0-0.2,0-0.4,0
		s-0.2,0-0.3,0c-1.3,0-2.2,0.4-3,1.1c-0.7,0.7-1.1,1.8-1.1,3.3v6.7H148.4z"/>
	<path class="st6" d="M162.4,28.5c-1,0-2-0.2-2.7-0.5c-0.8-0.4-1.4-0.9-1.8-1.5c-0.4-0.6-0.6-1.4-0.6-2.1c0-0.8,0.2-1.5,0.6-2.1
		c0.4-0.6,1-1.1,1.8-1.5s2-0.5,3.4-0.5h4v2.2h-3.8c-1.1,0-1.8,0.2-2.2,0.5c-0.4,0.4-0.6,0.8-0.6,1.3c0,0.6,0.2,1,0.7,1.4
		c0.5,0.3,1.1,0.5,2,0.5c0.8,0,1.5-0.2,2.1-0.5c0.6-0.4,1.1-0.9,1.4-1.6l0.5,2c-0.3,0.8-0.9,1.5-1.7,1.9
		C164.6,28.2,163.6,28.5,162.4,28.5z M166.7,28.3v-2.8l-0.2-0.6v-4.9c0-1-0.3-1.7-0.9-2.2c-0.6-0.5-1.5-0.8-2.6-0.8
		c-0.8,0-1.5,0.1-2.3,0.4c-0.7,0.2-1.4,0.6-1.9,1l-1.3-2.4c0.8-0.6,1.7-1,2.7-1.3c1-0.3,2.1-0.4,3.2-0.4c2,0,3.6,0.5,4.7,1.5
		c1.1,1,1.6,2.5,1.6,4.5v8.2H166.7z"/>
	<path class="st6" d="M173,16.8l1.5-5.8l0.5,2c-0.6,0-1.1-0.2-1.6-0.6c-0.4-0.4-0.6-0.9-0.6-1.5s0.2-1.2,0.6-1.6
		c0.4-0.4,0.9-0.6,1.5-0.6c0.6,0,1.1,0.2,1.5,0.6c0.4,0.4,0.6,0.9,0.6,1.5c0,0.2,0,0.4,0,0.6c0,0.2-0.1,0.4-0.2,0.7
		c-0.1,0.3-0.2,0.6-0.4,1l-1.4,3.7H173z"/>
	<path class="st6" d="M184.1,28.5c-1.2,0-2.3-0.2-3.4-0.5s-1.9-0.7-2.6-1.1l1.3-2.5c0.6,0.4,1.4,0.7,2.2,1c0.9,0.3,1.7,0.4,2.6,0.4
		c1,0,1.7-0.1,2.2-0.4c0.5-0.3,0.7-0.6,0.7-1.1c0-0.4-0.2-0.7-0.5-0.9c-0.3-0.2-0.7-0.4-1.2-0.5c-0.5-0.1-1.1-0.2-1.7-0.3
		c-0.6-0.1-1.2-0.2-1.9-0.4s-1.2-0.4-1.7-0.7s-0.9-0.7-1.2-1.2c-0.3-0.5-0.5-1.1-0.5-2c0-0.9,0.3-1.6,0.8-2.3s1.2-1.2,2.1-1.5
		c0.9-0.4,2-0.5,3.2-0.5c0.9,0,1.9,0.1,2.8,0.3c1,0.2,1.8,0.5,2.4,0.9l-1.3,2.5c-0.6-0.4-1.3-0.6-2-0.8c-0.7-0.1-1.3-0.2-2-0.2
		c-1,0-1.7,0.1-2.2,0.4s-0.7,0.7-0.7,1.1c0,0.4,0.2,0.7,0.5,0.9c0.3,0.2,0.7,0.4,1.2,0.5s1.1,0.2,1.7,0.3c0.6,0.1,1.2,0.2,1.8,0.4
		c0.6,0.1,1.2,0.4,1.7,0.6c0.5,0.3,0.9,0.6,1.2,1.1s0.5,1.1,0.5,1.9c0,0.9-0.3,1.6-0.8,2.3c-0.5,0.6-1.2,1.1-2.2,1.5
		C186.5,28.3,185.4,28.5,184.1,28.5z"/>
	<path class="st6" d="M200.7,28.3V10h3.4v18.2H200.7z"/>
	<path class="st6" d="M209,28.3V10h2.8l8,13.3h-1.5l7.8-13.3h2.8l0.1,18.2h-3.3V15.1h0.7l-6.6,11.2h-1.5l-6.8-11.2h0.8v13.2H209z"/>
	<path class="st6" d="M233.9,28.3V10h7.5c1.6,0,3,0.3,4.2,0.8c1.2,0.5,2,1.3,2.7,2.2c0.6,1,0.9,2.1,0.9,3.5c0,1.3-0.3,2.5-0.9,3.5
		c-0.6,1-1.5,1.7-2.7,2.2S243,23,241.4,23h-5.6l1.5-1.6v6.8H233.9z M237.3,21.8l-1.5-1.7h5.4c1.5,0,2.6-0.3,3.4-1
		c0.8-0.6,1.1-1.5,1.1-2.7c0-1.1-0.4-2-1.1-2.7c-0.8-0.6-1.9-1-3.4-1h-5.4l1.5-1.7V21.8z"/>
	<path class="st6" d="M255.9,25.4h10.3v2.9h-13.7V10h13.3v2.9h-9.9V25.4z M255.7,17.6h9.1v2.8h-9.1V17.6z"/>
	<path class="st6" d="M270,28.3V10h7.5c1.6,0,3,0.3,4.2,0.8c1.2,0.5,2,1.3,2.7,2.2c0.6,1,0.9,2.1,0.9,3.5c0,1.3-0.3,2.5-0.9,3.4
		c-0.6,1-1.5,1.7-2.7,2.2s-2.5,0.8-4.2,0.8h-5.6l1.5-1.5v6.8H270z M273.4,21.8l-1.5-1.6h5.4c1.5,0,2.6-0.3,3.4-1
		c0.8-0.6,1.1-1.5,1.1-2.7c0-1.1-0.4-2-1.1-2.7c-0.8-0.6-1.9-1-3.4-1h-5.4l1.5-1.7V21.8z M281.9,28.3l-4.6-6.6h3.6l4.6,6.6H281.9z"
		/>
	<path class="st6" d="M289,28.3V10h3.4v18.2H289z"/>
	<path class="st6" d="M305.2,28.5c-2.5,0-4.4-0.7-5.8-2.1c-1.4-1.4-2.1-3.4-2.1-6.1V10h3.4v10.2c0,1.9,0.4,3.2,1.2,4.1
		s1.9,1.3,3.4,1.3s2.6-0.4,3.4-1.3s1.2-2.2,1.2-4.1V10h3.3v10.3c0,2.7-0.7,4.7-2.1,6.1C309.6,27.8,307.7,28.5,305.2,28.5z"/>
	<path class="st6" d="M317.9,28.3V10h2.8l8,13.3h-1.5l7.8-13.3h2.8l0.1,18.2h-3.3V15.1h0.7l-6.6,11.2h-1.5l-6.8-11.2h0.8v13.2H317.9
		z"/>
</g>
<g>
	<path class="st3" d="M109.7,95.7V83.4h2.3v12.3H109.7z M111.7,92.8l-0.1-2.7l6.4-6.7h2.6l-5.3,5.7l-1.3,1.4L111.7,92.8z
		 M118.2,95.7l-4.7-5.6l1.5-1.7l5.9,7.2H118.2z"/>
	<path class="st3" d="M131.7,95.7h-2.3V83.4h2.3V95.7z M138.2,90.4h-6.7v-1.9h6.7V90.4z M138,83.4h2.3v12.3H138V83.4z"/>
	<path class="st3" d="M148.9,95.7l5.5-12.3h2.2l5.5,12.3h-2.4l-4.7-11h0.9l-4.7,11H148.9z M151.4,92.8L152,91h6.6l0.6,1.8H151.4z"/>
	<path class="st3" d="M170.7,95.7V83.4h5c1.1,0,2,0.2,2.8,0.5c0.8,0.3,1.4,0.8,1.8,1.5s0.6,1.4,0.6,2.3c0,0.9-0.2,1.7-0.6,2.3
		s-1,1.1-1.8,1.5c-0.8,0.4-1.7,0.5-2.8,0.5H172l1-1v4.6H170.7z M173,91.3l-1-1.1h3.7c1,0,1.8-0.2,2.3-0.6s0.8-1,0.8-1.8
		c0-0.8-0.3-1.4-0.8-1.8c-0.5-0.4-1.3-0.6-2.3-0.6H172l1-1.1V91.3z M178.7,95.7l-3.1-4.4h2.4l3.1,4.4H178.7z"/>
	<path class="st3" d="M188.8,95.7l5.5-12.3h2.2l5.5,12.3h-2.4l-4.7-11h0.9l-4.7,11H188.8z M191.3,92.8L192,91h6.6l0.6,1.8H191.3z"/>
	<path class="st3" d="M210.6,95.7V83.4h5.4c1.3,0,2.5,0.3,3.5,0.8s1.8,1.2,2.4,2.1c0.6,0.9,0.8,2,0.8,3.2s-0.3,2.3-0.8,3.2
		c-0.6,0.9-1.3,1.6-2.4,2.1s-2.2,0.8-3.5,0.8H210.6z M212.9,93.7h3c0.9,0,1.7-0.2,2.4-0.5c0.7-0.3,1.2-0.8,1.6-1.5
		c0.4-0.6,0.6-1.4,0.6-2.2c0-0.9-0.2-1.6-0.6-2.2c-0.4-0.6-0.9-1.1-1.6-1.5c-0.7-0.4-1.5-0.5-2.4-0.5h-3V93.7z"/>
	<path class="st3" d="M232.1,95.7V83.4h2.3v12.3H232.1z"/>
	<path class="st3" d="M243.9,98.3l1-3.9l0.3,1.3c-0.4,0-0.8-0.1-1-0.4s-0.4-0.6-0.4-1c0-0.4,0.1-0.8,0.4-1s0.6-0.4,1-0.4
		c0.4,0,0.8,0.1,1,0.4c0.3,0.3,0.4,0.6,0.4,1c0,0.1,0,0.3,0,0.4c0,0.1-0.1,0.3-0.1,0.5c-0.1,0.2-0.1,0.4-0.2,0.7l-0.9,2.5H243.9z"/>
	<path class="st3" d="M267.8,95.7V83.4h5c1.1,0,2,0.2,2.8,0.5c0.8,0.3,1.4,0.8,1.8,1.5s0.6,1.4,0.6,2.3c0,0.9-0.2,1.7-0.6,2.3
		s-1,1.1-1.8,1.5c-0.8,0.4-1.7,0.5-2.8,0.5h-3.8l1-1v4.6H267.8z M270.1,91.3l-1-1.1h3.7c1,0,1.8-0.2,2.3-0.6s0.8-1,0.8-1.8
		c0-0.8-0.3-1.4-0.8-1.8c-0.5-0.4-1.3-0.6-2.3-0.6h-3.7l1-1.1V91.3z"/>
	<path class="st3" d="M292.6,95.8c-1.7,0-3-0.5-3.9-1.4s-1.4-2.3-1.4-4.1v-6.9h2.3v6.8c0,1.3,0.3,2.2,0.8,2.7
		c0.5,0.6,1.3,0.9,2.3,0.9c1,0,1.8-0.3,2.3-0.9c0.5-0.6,0.8-1.5,0.8-2.7v-6.8h2.2v6.9c0,1.8-0.5,3.2-1.4,4.1S294.3,95.8,292.6,95.8z
		"/>
	<path class="st3" d="M308.1,95.7V83.4h1.9l7.7,9.5h-0.9v-9.5h2.2v12.3h-1.9l-7.7-9.5h0.9v9.5H308.1z"/>
	<path class="st3" d="M331.6,93.7h6.9v1.9h-9.2V83.4h8.9v1.9h-6.7V93.7z M331.4,88.5h6.1v1.9h-6.1V88.5z"/>
</g>
<path class="st6" d="M110.7,69.7l14.2-31.5h5.8l14.2,31.5h-6.2l-12.1-28.4h2.3l-12.2,28.4H110.7z M117.2,62.4l1.6-4.6h17l1.6,4.6
	H117.2z"/>
<path class="st6" d="M168.9,69.7V43.2h-10.4v-4.9h26.7v4.9h-10.4v26.5H168.9z"/>
<path class="st6" d="M204.9,69.7V38.2h4.8l13.8,23H221l13.5-23h4.8l0.1,31.5h-5.6V46.9h1.1l-11.4,19.3h-2.7l-11.7-19.3h1.3v22.8
	H204.9z"/>
<path class="st7" d="M294.6,42.4c-0.9-2.1-2.1-3.9-3.8-5.5c-1.6-1.5-3.5-2.7-5.7-3.6c-2.2-0.8-4.6-1.3-7.2-1.3c-2.6,0-5,0.4-7.2,1.3
	c-2.2,0.9-4.1,2.1-5.7,3.6c-1.6,1.5-2.9,3.4-3.8,5.5c-0.9,2.1-1.3,4.4-1.3,6.9c0,2.5,0.4,4.7,1.3,6.8c0.9,2.1,2.2,3.9,3.8,5.5
	c0.6,0.6,12.6,12.3,12.6,12.3s12.3-11.4,13.2-12.3c1.6-1.6,2.9-3.4,3.8-5.5c0.9-2.1,1.3-4.4,1.3-6.9
	C295.9,46.8,295.5,44.5,294.6,42.4z M265.3,43.9c0.7-1.6,1.6-3.1,2.9-4.3c1.2-1.2,2.6-2.2,4.3-2.8c1.7-0.7,3.5-1,5.4-1
	c1.9,0,3.7,0.3,5.3,1c1.6,0.7,3.1,1.6,4.3,2.8c1.2,1.2,2.2,2.6,2.8,4.3c0.7,1.6,1,3.5,1,5.4s-0.3,3.8-1,5.4
	c-0.7,1.6-1.6,3.1-2.8,4.3c-1.2,1.2-2.6,2.1-4.3,2.8c-1.6,0.7-3.4,1-5.3,1c-1.9,0-3.7-0.3-5.4-1c-1.7-0.7-3.1-1.6-4.3-2.8
	c-1.2-1.2-2.2-2.7-2.9-4.3c-0.7-1.6-1-3.4-1-5.4C264.3,47.3,264.7,45.5,265.3,43.9z"/>
<path class="st6" d="M326.1,70.2c-2.5,0-4.8-0.4-7-1.1c-2.2-0.7-4-1.6-5.4-2.7l2-4.5c1.3,1,2.8,1.8,4.7,2.5c1.9,0.7,3.8,1,5.7,1
	c1.6,0,3-0.2,4-0.5c1-0.4,1.8-0.8,2.2-1.5s0.7-1.3,0.7-2.1c0-1-0.3-1.7-1-2.3c-0.7-0.6-1.6-1-2.7-1.4c-1.1-0.3-2.3-0.7-3.6-0.9
	c-1.3-0.3-2.7-0.6-4-1.1s-2.6-1-3.7-1.6c-1.1-0.6-2-1.5-2.7-2.6c-0.7-1.1-1-2.5-1-4.1c0-1.7,0.5-3.3,1.4-4.7
	c0.9-1.4,2.3-2.6,4.2-3.4c1.9-0.9,4.3-1.3,7.1-1.3c1.9,0,3.8,0.2,5.6,0.7c1.9,0.5,3.5,1.2,4.9,2.1l-1.8,4.5
	c-1.4-0.8-2.9-1.5-4.4-1.9c-1.5-0.4-2.9-0.6-4.3-0.6c-1.6,0-2.9,0.2-3.9,0.6c-1,0.4-1.8,0.9-2.2,1.6c-0.5,0.6-0.7,1.4-0.7,2.1
	c0,1,0.3,1.7,1,2.3c0.7,0.6,1.6,1,2.7,1.4c1.1,0.3,2.3,0.6,3.7,0.9c1.3,0.3,2.7,0.7,4,1.1c1.3,0.4,2.5,0.9,3.6,1.6s2,1.5,2.7,2.6
	c0.7,1.1,1,2.4,1,4.1c0,1.7-0.5,3.2-1.4,4.7c-0.9,1.4-2.3,2.6-4.2,3.4C331.3,69.7,329,70.2,326.1,70.2z"/>
<path class="st7" d="M293.4,70.6c0,3.1-7,5.5-15.5,5.5c-8.6,0-15.5-2.5-15.5-5.5c0-2,2.9-3.7,7.3-4.7c-3.9,0.9-6.5,2.4-6.5,4.1
	c0,2.8,6.6,5,14.8,5s14.8-2.2,14.8-5c0-1.7-2.6-3.2-6.5-4.1C290.5,66.9,293.4,68.6,293.4,70.6z"/>
</svg>
